<?xml version="1.0" standalone="no"?>
<!DOCTYPE svg PUBLIC "-//W3C//DTD SVG 20010904//EN"
 "http://www.w3.org/TR/2001/REC-SVG-20010904/DTD/svg10.dtd">
<svg version="1.0" xmlns="http://www.w3.org/2000/svg"
 width="1249.000000pt" height="1280.000000pt" viewBox="0 0 1249.000000 1280.000000"
 preserveAspectRatio="xMidYMid meet">
<metadata>
Created by potrace 1.15, written by Peter Selinger 2001-2017
</metadata>
<g transform="translate(0.000000,1280.000000) scale(0.100000,-0.100000)"
fill="#000000" stroke="none">
<path d="M8130 12790 c-789 -60 -1484 -324 -2070 -786 -729 -575 -1154 -1349
-1262 -2299 -18 -164 -15 -570 6 -745 44 -366 127 -696 258 -1018 27 -68 48
-125 46 -126 -1 -2 -198 -37 -437 -79 -375 -65 -442 -80 -496 -106 -81 -40
-164 -124 -206 -209 -32 -63 -34 -73 -34 -172 0 -99 2 -109 33 -172 30 -61 55
-88 295 -309 144 -132 262 -247 262 -253 0 -7 -138 -168 -306 -357 -2811
-3166 -4029 -4541 -4039 -4559 -32 -59 -125 -433 -157 -625 -26 -161 -24 -438
4 -561 41 -176 138 -374 197 -402 30 -15 10 -17 696 64 162 19 527 57 811 84
284 27 523 52 532 56 24 9 578 595 588 622 5 13 9 184 9 381 l0 358 68 7 c37
3 292 22 567 42 275 20 511 41 525 48 29 13 424 457 447 502 14 29 13 72 -16
535 -17 277 -33 514 -35 527 -2 16 2 23 18 26 11 3 266 21 566 41 699 47 659
42 692 76 20 19 28 38 28 61 0 18 -11 227 -25 463 -14 237 -25 435 -25 442 0
6 127 163 282 350 154 186 282 339 284 341 1 2 143 -117 316 -265 172 -147
333 -285 358 -306 62 -53 193 -115 265 -126 112 -17 206 12 277 86 70 72 82
115 179 635 50 265 92 485 95 487 2 3 51 -7 109 -22 950 -247 1965 -154 2777
254 541 272 1024 711 1344 1224 280 448 446 933 516 1505 17 138 17 593 0 730
-42 343 -114 631 -232 926 -196 490 -455 900 -806 1275 -699 745 -1614 1214
-2604 1335 -151 18 -541 26 -700 14z m1580 -1724 c336 -60 596 -339 617 -661
26 -403 -304 -744 -718 -745 -78 0 -218 29 -295 61 -348 145 -533 538 -415
881 112 325 463 526 811 464z"/>
</g>
</svg>
